%TF.GenerationSoftware,KiCad,Pcbnew,(6.0.4)*%
%TF.CreationDate,2022-06-24T20:10:35+03:00*%
%TF.ProjectId,stencils,7374656e-6369-46c7-932e-6b696361645f,rev?*%
%TF.SameCoordinates,Original*%
%TF.FileFunction,Paste,Top*%
%TF.FilePolarity,Positive*%
%FSLAX46Y46*%
G04 Gerber Fmt 4.6, Leading zero omitted, Abs format (unit mm)*
G04 Created by KiCad (PCBNEW (6.0.4)) date 2022-06-24 20:10:35*
%MOMM*%
%LPD*%
G01*
G04 APERTURE LIST*
G04 Aperture macros list*
%AMRoundRect*
0 Rectangle with rounded corners*
0 $1 Rounding radius*
0 $2 $3 $4 $5 $6 $7 $8 $9 X,Y pos of 4 corners*
0 Add a 4 corners polygon primitive as box body*
4,1,4,$2,$3,$4,$5,$6,$7,$8,$9,$2,$3,0*
0 Add four circle primitives for the rounded corners*
1,1,$1+$1,$2,$3*
1,1,$1+$1,$4,$5*
1,1,$1+$1,$6,$7*
1,1,$1+$1,$8,$9*
0 Add four rect primitives between the rounded corners*
20,1,$1+$1,$2,$3,$4,$5,0*
20,1,$1+$1,$4,$5,$6,$7,0*
20,1,$1+$1,$6,$7,$8,$9,0*
20,1,$1+$1,$8,$9,$2,$3,0*%
G04 Aperture macros list end*
%ADD10RoundRect,0.237500X0.237500X-0.250000X0.237500X0.250000X-0.237500X0.250000X-0.237500X-0.250000X0*%
%ADD11RoundRect,0.160000X-0.160000X0.197500X-0.160000X-0.197500X0.160000X-0.197500X0.160000X0.197500X0*%
%ADD12RoundRect,0.250000X-0.475000X0.250000X-0.475000X-0.250000X0.475000X-0.250000X0.475000X0.250000X0*%
%ADD13RoundRect,0.250000X0.250000X0.475000X-0.250000X0.475000X-0.250000X-0.475000X0.250000X-0.475000X0*%
%ADD14RoundRect,0.237500X0.250000X0.237500X-0.250000X0.237500X-0.250000X-0.237500X0.250000X-0.237500X0*%
%ADD15RoundRect,0.237500X-0.287500X-0.237500X0.287500X-0.237500X0.287500X0.237500X-0.287500X0.237500X0*%
%ADD16RoundRect,0.250000X0.475000X-0.250000X0.475000X0.250000X-0.475000X0.250000X-0.475000X-0.250000X0*%
%ADD17R,1.000000X0.700000*%
%ADD18R,0.650000X1.500000*%
%ADD19RoundRect,0.250000X-0.250000X-0.475000X0.250000X-0.475000X0.250000X0.475000X-0.250000X0.475000X0*%
%ADD20RoundRect,0.237500X0.237500X-0.287500X0.237500X0.287500X-0.237500X0.287500X-0.237500X-0.287500X0*%
%ADD21RoundRect,0.075000X-0.075000X0.662500X-0.075000X-0.662500X0.075000X-0.662500X0.075000X0.662500X0*%
%ADD22RoundRect,0.075000X-0.662500X0.075000X-0.662500X-0.075000X0.662500X-0.075000X0.662500X0.075000X0*%
%ADD23RoundRect,0.375000X2.375000X0.375000X-2.375000X0.375000X-2.375000X-0.375000X2.375000X-0.375000X0*%
%ADD24RoundRect,0.237500X-0.250000X-0.237500X0.250000X-0.237500X0.250000X0.237500X-0.250000X0.237500X0*%
%ADD25RoundRect,0.237500X-0.237500X0.250000X-0.237500X-0.250000X0.237500X-0.250000X0.237500X0.250000X0*%
%ADD26RoundRect,0.225000X0.225000X-0.225000X0.225000X0.225000X-0.225000X0.225000X-0.225000X-0.225000X0*%
%ADD27RoundRect,0.062500X0.062500X-0.337500X0.062500X0.337500X-0.062500X0.337500X-0.062500X-0.337500X0*%
%ADD28RoundRect,0.062500X0.337500X-0.062500X0.337500X0.062500X-0.337500X0.062500X-0.337500X-0.062500X0*%
%ADD29R,0.400000X0.650000*%
%ADD30RoundRect,0.237500X0.237500X-0.300000X0.237500X0.300000X-0.237500X0.300000X-0.237500X-0.300000X0*%
%ADD31RoundRect,0.100000X-0.100000X0.637500X-0.100000X-0.637500X0.100000X-0.637500X0.100000X0.637500X0*%
%ADD32R,1.200000X1.850000*%
%ADD33R,0.650000X1.560000*%
%ADD34RoundRect,0.237500X-0.300000X-0.237500X0.300000X-0.237500X0.300000X0.237500X-0.300000X0.237500X0*%
%ADD35R,1.560000X0.650000*%
%ADD36RoundRect,0.237500X-0.237500X0.300000X-0.237500X-0.300000X0.237500X-0.300000X0.237500X0.300000X0*%
%ADD37R,2.250000X0.500000*%
%ADD38R,2.300000X2.000000*%
%ADD39R,2.500000X2.000000*%
%ADD40R,0.450000X1.475000*%
%ADD41R,1.400000X1.300000*%
%ADD42R,0.950000X1.000000*%
%ADD43R,1.900000X1.400000*%
%ADD44R,1.500000X0.800000*%
%ADD45R,1.500000X0.650000*%
%ADD46RoundRect,0.100000X0.637500X0.100000X-0.637500X0.100000X-0.637500X-0.100000X0.637500X-0.100000X0*%
%ADD47C,17.800000*%
%ADD48RoundRect,0.375000X-2.375000X-0.375000X2.375000X-0.375000X2.375000X0.375000X-2.375000X0.375000X0*%
%ADD49RoundRect,0.250000X-0.337500X-0.475000X0.337500X-0.475000X0.337500X0.475000X-0.337500X0.475000X0*%
%ADD50RoundRect,0.237500X-0.237500X0.287500X-0.237500X-0.287500X0.237500X-0.287500X0.237500X0.287500X0*%
%ADD51R,0.800000X2.700000*%
%ADD52RoundRect,0.250000X1.450000X-0.400000X1.450000X0.400000X-1.450000X0.400000X-1.450000X-0.400000X0*%
%ADD53RoundRect,0.237500X0.300000X0.237500X-0.300000X0.237500X-0.300000X-0.237500X0.300000X-0.237500X0*%
%ADD54RoundRect,0.250000X0.475000X-0.337500X0.475000X0.337500X-0.475000X0.337500X-0.475000X-0.337500X0*%
%ADD55R,0.700000X1.000000*%
%ADD56RoundRect,0.250000X-0.292217X-0.292217X0.292217X-0.292217X0.292217X0.292217X-0.292217X0.292217X0*%
%ADD57RoundRect,0.050000X-0.387500X-0.050000X0.387500X-0.050000X0.387500X0.050000X-0.387500X0.050000X0*%
%ADD58RoundRect,0.050000X-0.050000X-0.387500X0.050000X-0.387500X0.050000X0.387500X-0.050000X0.387500X0*%
%ADD59RoundRect,0.150000X-0.650000X-0.150000X0.650000X-0.150000X0.650000X0.150000X-0.650000X0.150000X0*%
%ADD60R,2.000000X0.500000*%
%ADD61R,1.700000X2.000000*%
%ADD62R,1.150000X0.600000*%
%ADD63RoundRect,0.150000X-0.587500X-0.150000X0.587500X-0.150000X0.587500X0.150000X-0.587500X0.150000X0*%
%ADD64R,0.800000X0.300000*%
%ADD65R,0.800000X0.400000*%
%ADD66RoundRect,0.250000X-0.262500X-0.450000X0.262500X-0.450000X0.262500X0.450000X-0.262500X0.450000X0*%
%ADD67RoundRect,0.150000X0.587500X0.150000X-0.587500X0.150000X-0.587500X-0.150000X0.587500X-0.150000X0*%
%ADD68R,0.400000X0.800000*%
%ADD69RoundRect,0.250000X0.262500X0.450000X-0.262500X0.450000X-0.262500X-0.450000X0.262500X-0.450000X0*%
%ADD70RoundRect,0.250000X-0.450000X0.262500X-0.450000X-0.262500X0.450000X-0.262500X0.450000X0.262500X0*%
%ADD71RoundRect,0.150000X-0.150000X0.825000X-0.150000X-0.825000X0.150000X-0.825000X0.150000X0.825000X0*%
%ADD72RoundRect,0.250000X0.450000X-0.262500X0.450000X0.262500X-0.450000X0.262500X-0.450000X-0.262500X0*%
%ADD73RoundRect,0.150000X0.150000X-0.587500X0.150000X0.587500X-0.150000X0.587500X-0.150000X-0.587500X0*%
%ADD74RoundRect,0.250000X0.550000X-1.500000X0.550000X1.500000X-0.550000X1.500000X-0.550000X-1.500000X0*%
%ADD75RoundRect,0.150000X-0.825000X-0.150000X0.825000X-0.150000X0.825000X0.150000X-0.825000X0.150000X0*%
G04 APERTURE END LIST*
D10*
%TO.C,R21*%
X228574600Y-210816200D03*
X228574600Y-208991200D03*
%TD*%
D11*
%TO.C,FB1*%
X215112600Y-199630700D03*
X215112600Y-200825700D03*
%TD*%
D12*
%TO.C,C8*%
X221335600Y-194452200D03*
X221335600Y-196352200D03*
%TD*%
D13*
%TO.C,C6*%
X220610300Y-190957200D03*
X218710300Y-190957200D03*
%TD*%
D10*
%TO.C,R18*%
X233400600Y-173200700D03*
X233400600Y-171375700D03*
%TD*%
D13*
%TO.C,C15*%
X223682600Y-180543200D03*
X221782600Y-180543200D03*
%TD*%
D12*
%TO.C,C11*%
X230327200Y-178450200D03*
X230327200Y-180350200D03*
%TD*%
D14*
%TO.C,R13*%
X216914100Y-195148200D03*
X215089100Y-195148200D03*
%TD*%
%TO.C,R4*%
X236699600Y-183998700D03*
X234874600Y-183998700D03*
%TD*%
D15*
%TO.C,D2*%
X212778400Y-191236600D03*
X214528400Y-191236600D03*
%TD*%
D14*
%TO.C,R5*%
X234694100Y-191719200D03*
X232869100Y-191719200D03*
%TD*%
%TO.C,R9*%
X235305600Y-174955200D03*
X233480600Y-174955200D03*
%TD*%
D10*
%TO.C,R17*%
X230860600Y-173200700D03*
X230860600Y-171375700D03*
%TD*%
D16*
%TO.C,C7*%
X226669600Y-176513700D03*
X226669600Y-174613700D03*
%TD*%
D17*
%TO.C,S1*%
X232105300Y-206153400D03*
X238105300Y-206153400D03*
X232105300Y-209853400D03*
X238105300Y-209853400D03*
%TD*%
D10*
%TO.C,R23*%
X236575600Y-201418200D03*
X236575600Y-199593200D03*
%TD*%
D12*
%TO.C,C16*%
X238734600Y-172862200D03*
X238734600Y-174762200D03*
%TD*%
D10*
%TO.C,R19*%
X224891600Y-173073700D03*
X224891600Y-171248700D03*
%TD*%
D18*
%TO.C,IC1*%
X217398600Y-203065400D03*
X216128600Y-203065400D03*
X214858600Y-203065400D03*
X213588600Y-203065400D03*
X213588600Y-208465400D03*
X214858600Y-208465400D03*
X216128600Y-208465400D03*
X217398600Y-208465400D03*
%TD*%
D10*
%TO.C,R26*%
X220319600Y-207260200D03*
X220319600Y-205435200D03*
%TD*%
D19*
%TO.C,C12*%
X221782600Y-182575200D03*
X223682600Y-182575200D03*
%TD*%
%TO.C,C9*%
X218353600Y-182803800D03*
X220253600Y-182803800D03*
%TD*%
D14*
%TO.C,R6*%
X230860600Y-174828200D03*
X229035600Y-174828200D03*
%TD*%
D10*
%TO.C,R8*%
X216382600Y-158238200D03*
X216382600Y-156413200D03*
%TD*%
D16*
%TO.C,C10*%
X224637600Y-176540200D03*
X224637600Y-174640200D03*
%TD*%
D12*
%TO.C,C2*%
X227431600Y-194452200D03*
X227431600Y-196352200D03*
%TD*%
D10*
%TO.C,R24*%
X236423200Y-197838700D03*
X236423200Y-196013700D03*
%TD*%
%TO.C,R25*%
X220319600Y-210816200D03*
X220319600Y-208991200D03*
%TD*%
D13*
%TO.C,C18*%
X217154800Y-210743800D03*
X215254800Y-210743800D03*
%TD*%
D14*
%TO.C,R16*%
X236676100Y-188570700D03*
X234851100Y-188570700D03*
%TD*%
D19*
%TO.C,C14*%
X228513600Y-176606200D03*
X230413600Y-176606200D03*
%TD*%
D14*
%TO.C,R3*%
X236676100Y-185522700D03*
X234851100Y-185522700D03*
%TD*%
D10*
%TO.C,R15*%
X236956600Y-174724700D03*
X236956600Y-172899700D03*
%TD*%
D20*
%TO.C,D1*%
X218541600Y-195134200D03*
X218541600Y-193384200D03*
%TD*%
D14*
%TO.C,R2*%
X236676100Y-187046700D03*
X234851100Y-187046700D03*
%TD*%
D12*
%TO.C,C1*%
X238226600Y-195949700D03*
X238226600Y-197849700D03*
%TD*%
D14*
%TO.C,R14*%
X211072100Y-191236600D03*
X209247100Y-191236600D03*
%TD*%
D19*
%TO.C,C13*%
X218709200Y-186817000D03*
X220609200Y-186817000D03*
%TD*%
D10*
%TO.C,R20*%
X226669600Y-173073700D03*
X226669600Y-171248700D03*
%TD*%
D19*
%TO.C,C5*%
X218709200Y-184785000D03*
X220609200Y-184785000D03*
%TD*%
D21*
%TO.C,U1*%
X230536100Y-183163600D03*
X230036100Y-183163600D03*
X229536100Y-183163600D03*
X229036100Y-183163600D03*
X228536100Y-183163600D03*
X228036100Y-183163600D03*
X227536100Y-183163600D03*
X227036100Y-183163600D03*
X226536100Y-183163600D03*
X226036100Y-183163600D03*
X225536100Y-183163600D03*
X225036100Y-183163600D03*
D22*
X223623600Y-184576100D03*
X223623600Y-185076100D03*
X223623600Y-185576100D03*
X223623600Y-186076100D03*
X223623600Y-186576100D03*
X223623600Y-187076100D03*
X223623600Y-187576100D03*
X223623600Y-188076100D03*
X223623600Y-188576100D03*
X223623600Y-189076100D03*
X223623600Y-189576100D03*
X223623600Y-190076100D03*
D21*
X225036100Y-191488600D03*
X225536100Y-191488600D03*
X226036100Y-191488600D03*
X226536100Y-191488600D03*
X227036100Y-191488600D03*
X227536100Y-191488600D03*
X228036100Y-191488600D03*
X228536100Y-191488600D03*
X229036100Y-191488600D03*
X229536100Y-191488600D03*
X230036100Y-191488600D03*
X230536100Y-191488600D03*
D22*
X231948600Y-190076100D03*
X231948600Y-189576100D03*
X231948600Y-189076100D03*
X231948600Y-188576100D03*
X231948600Y-188076100D03*
X231948600Y-187576100D03*
X231948600Y-187076100D03*
X231948600Y-186576100D03*
X231948600Y-186076100D03*
X231948600Y-185576100D03*
X231948600Y-185076100D03*
X231948600Y-184576100D03*
%TD*%
D10*
%TO.C,R22*%
X228574600Y-207260200D03*
X228574600Y-205435200D03*
%TD*%
%TO.C,R11*%
X223113600Y-173073700D03*
X223113600Y-171248700D03*
%TD*%
D16*
%TO.C,C17*%
X216763600Y-200797200D03*
X216763600Y-198897200D03*
%TD*%
D23*
%TO.C,Y1*%
X229522600Y-199847200D03*
X221022600Y-199847200D03*
%TD*%
D19*
%TO.C,C4*%
X218708100Y-188925200D03*
X220608100Y-188925200D03*
%TD*%
D10*
%TO.C,R7*%
X239115600Y-158087700D03*
X239115600Y-156262700D03*
%TD*%
D12*
%TO.C,C3*%
X223367600Y-194452200D03*
X223367600Y-196352200D03*
%TD*%
D24*
%TO.C,R1*%
X237187100Y-191719200D03*
X239012100Y-191719200D03*
%TD*%
D25*
%TO.C,R12*%
X228320600Y-171248700D03*
X228320600Y-173073700D03*
%TD*%
D15*
%TO.C,D2*%
X271010400Y-93634800D03*
X272760400Y-93634800D03*
%TD*%
D26*
%TO.C,U1*%
X262562200Y-97458600D03*
X261442200Y-96338600D03*
X262562200Y-96338600D03*
X262562200Y-98578600D03*
X260322200Y-96338600D03*
X260322200Y-97458600D03*
X260322200Y-98578600D03*
X261442200Y-97458600D03*
X261442200Y-98578600D03*
D27*
X259942200Y-99908600D03*
X260442200Y-99908600D03*
X260942200Y-99908600D03*
X261442200Y-99908600D03*
X261942200Y-99908600D03*
X262442200Y-99908600D03*
X262942200Y-99908600D03*
D28*
X263892200Y-98958600D03*
X263892200Y-98458600D03*
X263892200Y-97958600D03*
X263892200Y-97458600D03*
X263892200Y-96958600D03*
X263892200Y-96458600D03*
X263892200Y-95958600D03*
D27*
X262942200Y-95008600D03*
X262442200Y-95008600D03*
X261942200Y-95008600D03*
X261442200Y-95008600D03*
X260942200Y-95008600D03*
X260442200Y-95008600D03*
X259942200Y-95008600D03*
D28*
X258992200Y-95958600D03*
X258992200Y-96458600D03*
X258992200Y-96958600D03*
X258992200Y-97458600D03*
X258992200Y-97958600D03*
X258992200Y-98458600D03*
X258992200Y-98958600D03*
%TD*%
D29*
%TO.C,Q1*%
X262346200Y-87569200D03*
X261696200Y-87569200D03*
X261046200Y-87569200D03*
X261046200Y-89469200D03*
X261696200Y-89469200D03*
X262346200Y-89469200D03*
%TD*%
D30*
%TO.C,C5*%
X272338800Y-102979800D03*
X272338800Y-101254800D03*
%TD*%
D24*
%TO.C,R2*%
X266864300Y-98624800D03*
X268689300Y-98624800D03*
%TD*%
D14*
%TO.C,R4*%
X269263500Y-91983800D03*
X267438500Y-91983800D03*
%TD*%
D25*
%TO.C,R3*%
X274370800Y-101180500D03*
X274370800Y-103005500D03*
%TD*%
D31*
%TO.C,U1*%
X297401000Y-94454700D03*
X296751000Y-94454700D03*
X296101000Y-94454700D03*
X295451000Y-94454700D03*
X295451000Y-100179700D03*
X296101000Y-100179700D03*
X296751000Y-100179700D03*
X297401000Y-100179700D03*
%TD*%
D32*
%TO.C,FB1*%
X298144200Y-79486400D03*
X293844200Y-79486400D03*
%TD*%
D25*
%TO.C,R7*%
X259308600Y-87566100D03*
X259308600Y-89391100D03*
%TD*%
D18*
%TO.C,IC1*%
X272237200Y-105108000D03*
X270967200Y-105108000D03*
X269697200Y-105108000D03*
X268427200Y-105108000D03*
X268427200Y-110508000D03*
X269697200Y-110508000D03*
X270967200Y-110508000D03*
X272237200Y-110508000D03*
%TD*%
D33*
%TO.C,REF\u002A\u002A*%
X267629600Y-69661000D03*
X268579600Y-69661000D03*
X269529600Y-69661000D03*
X269529600Y-66961000D03*
X268579600Y-66961000D03*
X267629600Y-66961000D03*
%TD*%
D10*
%TO.C,R8*%
X264109200Y-89431700D03*
X264109200Y-87606700D03*
%TD*%
D15*
%TO.C,D1*%
X271022500Y-91983800D03*
X272772500Y-91983800D03*
%TD*%
D34*
%TO.C,C3*%
X264923100Y-103083600D03*
X266648100Y-103083600D03*
%TD*%
D35*
%TO.C,U2*%
X260295400Y-102717800D03*
X260295400Y-103667800D03*
X260295400Y-104617800D03*
X262995400Y-104617800D03*
X262995400Y-102717800D03*
%TD*%
D33*
%TO.C,REF\u002A\u002A*%
X280329600Y-69661000D03*
X281279600Y-69661000D03*
X282229600Y-69661000D03*
X282229600Y-66961000D03*
X281279600Y-66961000D03*
X280329600Y-66961000D03*
%TD*%
D34*
%TO.C,C2*%
X264923100Y-104709200D03*
X266648100Y-104709200D03*
%TD*%
D36*
%TO.C,C4*%
X270357600Y-112609700D03*
X270357600Y-114334700D03*
%TD*%
D33*
%TO.C,U2*%
X300657600Y-81852400D03*
X301607600Y-81852400D03*
X302557600Y-81852400D03*
X302557600Y-79152400D03*
X300657600Y-79152400D03*
%TD*%
%TO.C,REF\u002A\u002A*%
X257469600Y-69356200D03*
X258419600Y-69356200D03*
X259369600Y-69356200D03*
X259369600Y-66656200D03*
X258419600Y-66656200D03*
X257469600Y-66656200D03*
%TD*%
D24*
%TO.C,R5*%
X267430200Y-93634800D03*
X269255200Y-93634800D03*
%TD*%
D30*
%TO.C,C1*%
X274370800Y-99374100D03*
X274370800Y-97649100D03*
%TD*%
D14*
%TO.C,R1*%
X268687400Y-100326600D03*
X266862400Y-100326600D03*
%TD*%
D37*
%TO.C,J1*%
X263462200Y-112354800D03*
X263462200Y-113154800D03*
X263462200Y-113954800D03*
X263462200Y-114754800D03*
X263462200Y-115554800D03*
D38*
X263337200Y-109504800D03*
D39*
X263337200Y-118404800D03*
X257887200Y-109504800D03*
X257887200Y-118404800D03*
%TD*%
D17*
%TO.C,SW1*%
X283085800Y-110877200D03*
X277085800Y-110877200D03*
X283085800Y-107177200D03*
X277085800Y-107177200D03*
%TD*%
D40*
%TO.C,IC1*%
X301218000Y-99188400D03*
X301868000Y-99188400D03*
X302518000Y-99188400D03*
X303168000Y-99188400D03*
X303818000Y-99188400D03*
X304468000Y-99188400D03*
X305118000Y-99188400D03*
X305768000Y-99188400D03*
X306418000Y-99188400D03*
X307068000Y-99188400D03*
X307718000Y-99188400D03*
X308368000Y-99188400D03*
X309018000Y-99188400D03*
X309668000Y-99188400D03*
X309668000Y-93312400D03*
X309018000Y-93312400D03*
X308368000Y-93312400D03*
X307718000Y-93312400D03*
X307068000Y-93312400D03*
X306418000Y-93312400D03*
X305768000Y-93312400D03*
X305118000Y-93312400D03*
X304468000Y-93312400D03*
X303818000Y-93312400D03*
X303168000Y-93312400D03*
X302518000Y-93312400D03*
X301868000Y-93312400D03*
X301218000Y-93312400D03*
%TD*%
D41*
%TO.C,J2*%
X324054400Y-204527800D03*
D42*
X324280400Y-205917800D03*
D41*
X324054400Y-210227800D03*
D43*
X310905400Y-202927800D03*
X309905400Y-216077800D03*
D44*
X313194400Y-211417800D03*
X313594400Y-210317800D03*
X313194400Y-209217800D03*
X312994400Y-208117800D03*
X313194400Y-207017800D03*
X312994400Y-205917800D03*
X313194400Y-204817800D03*
X313194400Y-203717800D03*
%TD*%
D24*
%TO.C,R3*%
X284939100Y-198856600D03*
X286764100Y-198856600D03*
%TD*%
D45*
%TO.C,Q1*%
X273895800Y-151358600D03*
X273895800Y-150088600D03*
X273895800Y-148818600D03*
X273895800Y-147548600D03*
X268495800Y-147548600D03*
X268495800Y-148818600D03*
X268495800Y-150088600D03*
X268495800Y-151358600D03*
%TD*%
D46*
%TO.C,U6*%
X317079660Y-198440760D03*
X317079660Y-197790760D03*
X317079660Y-197140760D03*
X317079660Y-196490760D03*
X311354660Y-196490760D03*
X311354660Y-197140760D03*
X311354660Y-197790760D03*
X311354660Y-198440760D03*
%TD*%
D47*
%TO.C,BT2*%
X315668960Y-181336760D03*
%TD*%
D48*
%TO.C,Y1*%
X278142960Y-202291760D03*
X286642960Y-202291760D03*
%TD*%
D33*
%TO.C,U5*%
X280548960Y-158015760D03*
X279598960Y-158015760D03*
X278648960Y-158015760D03*
X278648960Y-160715760D03*
X280548960Y-160715760D03*
%TD*%
D49*
%TO.C,C21*%
X292709260Y-150882160D03*
X294784260Y-150882160D03*
%TD*%
D50*
%TO.C,D1*%
X294330960Y-187192760D03*
X294330960Y-188942760D03*
%TD*%
D24*
%TO.C,R13*%
X316024460Y-157587760D03*
X317849460Y-157587760D03*
%TD*%
D25*
%TO.C,R5*%
X285589460Y-183267160D03*
X285589460Y-185092160D03*
%TD*%
D14*
%TO.C,R14*%
X308927460Y-196957760D03*
X307102460Y-196957760D03*
%TD*%
D36*
%TO.C,C20*%
X323799200Y-195021200D03*
X323799200Y-196746200D03*
%TD*%
D32*
%TO.C,FB1*%
X277855360Y-155225560D03*
X282155360Y-155225560D03*
%TD*%
D51*
%TO.C,L1*%
X298564960Y-165969760D03*
X300764960Y-165969760D03*
%TD*%
D52*
%TO.C,F1*%
X285186960Y-155748760D03*
X285186960Y-151298760D03*
%TD*%
D20*
%TO.C,D6*%
X290901960Y-140937760D03*
X290901960Y-139187760D03*
%TD*%
D14*
%TO.C,R19*%
X295751460Y-140330760D03*
X293926460Y-140330760D03*
%TD*%
D53*
%TO.C,C11*%
X306399100Y-212217000D03*
X304674100Y-212217000D03*
%TD*%
D24*
%TO.C,R10*%
X272442300Y-145643600D03*
X274267300Y-145643600D03*
%TD*%
D30*
%TO.C,C19*%
X323799200Y-200353000D03*
X323799200Y-198628000D03*
%TD*%
D10*
%TO.C,R1*%
X272156760Y-172366760D03*
X272156760Y-170541760D03*
%TD*%
D14*
%TO.C,R23*%
X285337460Y-160381760D03*
X283512460Y-160381760D03*
%TD*%
D20*
%TO.C,D4*%
X285212360Y-140744960D03*
X285212360Y-138994960D03*
%TD*%
D54*
%TO.C,C13*%
X287980960Y-188110760D03*
X287980960Y-186035760D03*
%TD*%
D55*
%TO.C,SW1*%
X275949800Y-218239600D03*
X275949800Y-212239600D03*
X279649800Y-218239600D03*
X279649800Y-212239600D03*
%TD*%
D25*
%TO.C,R4*%
X284065460Y-183267160D03*
X284065460Y-185092160D03*
%TD*%
D24*
%TO.C,R20*%
X291314500Y-180441600D03*
X293139500Y-180441600D03*
%TD*%
D56*
%TO.C,U2*%
X282157960Y-190808460D03*
X283432960Y-190808460D03*
X283432960Y-192083460D03*
X282157960Y-192083460D03*
D57*
X279357960Y-188845960D03*
X279357960Y-189245960D03*
X279357960Y-189645960D03*
X279357960Y-190045960D03*
X279357960Y-190445960D03*
X279357960Y-190845960D03*
X279357960Y-191245960D03*
X279357960Y-191645960D03*
X279357960Y-192045960D03*
X279357960Y-192445960D03*
X279357960Y-192845960D03*
X279357960Y-193245960D03*
X279357960Y-193645960D03*
X279357960Y-194045960D03*
D58*
X280195460Y-194883460D03*
X280595460Y-194883460D03*
X280995460Y-194883460D03*
X281395460Y-194883460D03*
X281795460Y-194883460D03*
X282195460Y-194883460D03*
X282595460Y-194883460D03*
X282995460Y-194883460D03*
X283395460Y-194883460D03*
X283795460Y-194883460D03*
X284195460Y-194883460D03*
X284595460Y-194883460D03*
X284995460Y-194883460D03*
X285395460Y-194883460D03*
D57*
X286232960Y-194045960D03*
X286232960Y-193645960D03*
X286232960Y-193245960D03*
X286232960Y-192845960D03*
X286232960Y-192445960D03*
X286232960Y-192045960D03*
X286232960Y-191645960D03*
X286232960Y-191245960D03*
X286232960Y-190845960D03*
X286232960Y-190445960D03*
X286232960Y-190045960D03*
X286232960Y-189645960D03*
X286232960Y-189245960D03*
X286232960Y-188845960D03*
D58*
X285395460Y-188008460D03*
X284995460Y-188008460D03*
X284595460Y-188008460D03*
X284195460Y-188008460D03*
X283795460Y-188008460D03*
X283395460Y-188008460D03*
X282995460Y-188008460D03*
X282595460Y-188008460D03*
X282195460Y-188008460D03*
X281795460Y-188008460D03*
X281395460Y-188008460D03*
X280995460Y-188008460D03*
X280595460Y-188008460D03*
X280195460Y-188008460D03*
%TD*%
D18*
%TO.C,IC1*%
X292679960Y-148618760D03*
X293949960Y-148618760D03*
X295219960Y-148618760D03*
X296489960Y-148618760D03*
X296489960Y-143218760D03*
X295219960Y-143218760D03*
X293949960Y-143218760D03*
X292679960Y-143218760D03*
%TD*%
D35*
%TO.C,U7*%
X295680960Y-167935760D03*
X295680960Y-166985760D03*
X295680960Y-166035760D03*
X292980960Y-166035760D03*
X292980960Y-166985760D03*
X292980960Y-167935760D03*
%TD*%
D49*
%TO.C,C1*%
X276072260Y-206095600D03*
X278147260Y-206095600D03*
%TD*%
D24*
%TO.C,R22*%
X289409500Y-182067200D03*
X291234500Y-182067200D03*
%TD*%
D59*
%TO.C,U1*%
X272188960Y-177272760D03*
X272188960Y-178542760D03*
X272188960Y-179812760D03*
X272188960Y-181082760D03*
X279388960Y-181082760D03*
X279388960Y-179812760D03*
X279388960Y-178542760D03*
X279388960Y-177272760D03*
%TD*%
D24*
%TO.C,R21*%
X283512460Y-162159760D03*
X285337460Y-162159760D03*
%TD*%
D50*
%TO.C,D5*%
X284403800Y-211316600D03*
X284403800Y-213066600D03*
%TD*%
D24*
%TO.C,R7*%
X276125300Y-207873600D03*
X277950300Y-207873600D03*
%TD*%
D25*
%TO.C,R17*%
X282625800Y-211279100D03*
X282625800Y-213104100D03*
%TD*%
%TO.C,R18*%
X287472960Y-138998760D03*
X287472960Y-140823760D03*
%TD*%
%TO.C,R6*%
X292806960Y-189187260D03*
X292806960Y-191012260D03*
%TD*%
D10*
%TO.C,R24*%
X280868960Y-151388260D03*
X280868960Y-149563260D03*
%TD*%
D14*
%TO.C,R2*%
X273907460Y-174097760D03*
X272082460Y-174097760D03*
%TD*%
%TO.C,R12*%
X308959460Y-195433760D03*
X307134460Y-195433760D03*
%TD*%
D17*
%TO.C,SW2*%
X281328960Y-171121760D03*
X275328960Y-171121760D03*
X281328960Y-167421760D03*
X275328960Y-167421760D03*
%TD*%
D60*
%TO.C,J9*%
X275245960Y-158019760D03*
X275245960Y-158819760D03*
X275245960Y-159619760D03*
X275245960Y-160419760D03*
X275245960Y-161219760D03*
D61*
X275145960Y-164069760D03*
X269695960Y-155169760D03*
X269695960Y-164069760D03*
X275145960Y-155169760D03*
%TD*%
D53*
%TO.C,C24*%
X299765460Y-162413760D03*
X298040460Y-162413760D03*
%TD*%
D49*
%TO.C,C7*%
X279323460Y-175107600D03*
X281398460Y-175107600D03*
%TD*%
D62*
%TO.C,D3*%
X303744400Y-207028800D03*
X303744400Y-207978800D03*
X303744400Y-208928800D03*
X306344400Y-208928800D03*
X306344400Y-207978800D03*
X306344400Y-207028800D03*
%TD*%
D63*
%TO.C,U3*%
X276883460Y-149525760D03*
X276883460Y-151425760D03*
X278758460Y-150475760D03*
%TD*%
%TO.C,U5*%
X97462100Y-176326800D03*
X97462100Y-178226800D03*
X99337100Y-177276800D03*
%TD*%
D16*
%TO.C,C4*%
X134645400Y-131414600D03*
X134645400Y-129514600D03*
%TD*%
D64*
%TO.C,U7*%
X78374800Y-156378100D03*
X78374800Y-155878100D03*
X78374800Y-155378100D03*
X78374800Y-154878100D03*
X75274800Y-154878100D03*
X75274800Y-155378100D03*
X75274800Y-155878100D03*
X75274800Y-156378100D03*
%TD*%
D16*
%TO.C,C5*%
X146507200Y-159573000D03*
X146507200Y-157673000D03*
%TD*%
D65*
%TO.C,IC2*%
X74878656Y-166608911D03*
X74878656Y-167258911D03*
X74878656Y-167908911D03*
X76778656Y-167908911D03*
X76778656Y-166608911D03*
%TD*%
D17*
%TO.C,SW2*%
X99438200Y-185322600D03*
X105438200Y-185322600D03*
X99438200Y-189022600D03*
X105438200Y-189022600D03*
%TD*%
D66*
%TO.C,R12*%
X79646100Y-161292300D03*
X81471100Y-161292300D03*
%TD*%
D67*
%TO.C,Q1*%
X138506200Y-113715800D03*
X138506200Y-111815800D03*
X136631200Y-112765800D03*
%TD*%
D63*
%TO.C,U3*%
X139524500Y-134660600D03*
X139524500Y-136560600D03*
X141399500Y-135610600D03*
%TD*%
D68*
%TO.C,IC1*%
X69534800Y-187619600D03*
X68884800Y-187619600D03*
X68234800Y-187619600D03*
X68234800Y-189519600D03*
X69534800Y-189519600D03*
%TD*%
D66*
%TO.C,R18*%
X87753356Y-187119411D03*
X89578356Y-187119411D03*
%TD*%
D12*
%TO.C,C8*%
X72059800Y-187670400D03*
X72059800Y-189570400D03*
%TD*%
D69*
%TO.C,R20*%
X95572756Y-189354611D03*
X93747756Y-189354611D03*
%TD*%
D16*
%TO.C,C3*%
X136982200Y-135493800D03*
X136982200Y-133593800D03*
%TD*%
D19*
%TO.C,C10*%
X74960400Y-153215100D03*
X76860400Y-153215100D03*
%TD*%
D70*
%TO.C,R28*%
X108305600Y-188114300D03*
X108305600Y-189939300D03*
%TD*%
D69*
%TO.C,R14*%
X77864300Y-159158700D03*
X76039300Y-159158700D03*
%TD*%
D71*
%TO.C,U6*%
X95224600Y-168009800D03*
X93954600Y-168009800D03*
X92684600Y-168009800D03*
X91414600Y-168009800D03*
X90144600Y-168009800D03*
X88874600Y-168009800D03*
X87604600Y-168009800D03*
X86334600Y-168009800D03*
X86334600Y-172959800D03*
X87604600Y-172959800D03*
X88874600Y-172959800D03*
X90144600Y-172959800D03*
X91414600Y-172959800D03*
X92684600Y-172959800D03*
X93954600Y-172959800D03*
X95224600Y-172959800D03*
%TD*%
D16*
%TO.C,C9*%
X97485200Y-171079200D03*
X97485200Y-169179200D03*
%TD*%
D69*
%TO.C,R25*%
X75844400Y-189331600D03*
X74019400Y-189331600D03*
%TD*%
D66*
%TO.C,R27*%
X147728300Y-118084600D03*
X149553300Y-118084600D03*
%TD*%
D69*
%TO.C,R3*%
X123393200Y-148056600D03*
X121568200Y-148056600D03*
%TD*%
D72*
%TO.C,R7*%
X149682200Y-137257800D03*
X149682200Y-135432800D03*
%TD*%
D70*
%TO.C,R8*%
X151765000Y-129643500D03*
X151765000Y-131468500D03*
%TD*%
D73*
%TO.C,U8*%
X77017800Y-151155400D03*
X78917800Y-151155400D03*
X77967800Y-149280400D03*
%TD*%
D12*
%TO.C,C11*%
X80253800Y-157522900D03*
X80253800Y-159422900D03*
%TD*%
D69*
%TO.C,R19*%
X94509756Y-187170211D03*
X92684756Y-187170211D03*
%TD*%
D74*
%TO.C,C1*%
X116535200Y-147556200D03*
X116535200Y-142156200D03*
%TD*%
D66*
%TO.C,R16*%
X77766500Y-170893500D03*
X79591500Y-170893500D03*
%TD*%
D72*
%TO.C,R1*%
X143459200Y-113762800D03*
X143459200Y-111937800D03*
%TD*%
D69*
%TO.C,R26*%
X76858500Y-187172600D03*
X75033500Y-187172600D03*
%TD*%
D13*
%TO.C,C2*%
X131876800Y-130124200D03*
X129976800Y-130124200D03*
%TD*%
D66*
%TO.C,R4*%
X139422500Y-132562600D03*
X141247500Y-132562600D03*
%TD*%
%TO.C,R23*%
X80712900Y-149303500D03*
X82537900Y-149303500D03*
%TD*%
D72*
%TO.C,R5*%
X136855200Y-131392300D03*
X136855200Y-129567300D03*
%TD*%
D66*
%TO.C,R13*%
X76041200Y-161292300D03*
X77866200Y-161292300D03*
%TD*%
D70*
%TO.C,R22*%
X72684600Y-156710100D03*
X72684600Y-158535100D03*
%TD*%
%TO.C,R9*%
X149682200Y-139068800D03*
X149682200Y-140893800D03*
%TD*%
D69*
%TO.C,R11*%
X77915100Y-163476700D03*
X76090100Y-163476700D03*
%TD*%
D16*
%TO.C,C12*%
X72684600Y-154967700D03*
X72684600Y-153067700D03*
%TD*%
D55*
%TO.C,SW1*%
X143715800Y-126850400D03*
X143715800Y-120850400D03*
X147415800Y-126850400D03*
X147415800Y-120850400D03*
%TD*%
D66*
%TO.C,R21*%
X86637656Y-189253011D03*
X88462656Y-189253011D03*
%TD*%
%TO.C,R24*%
X77548100Y-189331600D03*
X79373100Y-189331600D03*
%TD*%
D72*
%TO.C,R17*%
X97485200Y-174650400D03*
X97485200Y-172825400D03*
%TD*%
D66*
%TO.C,R15*%
X73958400Y-170842700D03*
X75783400Y-170842700D03*
%TD*%
D13*
%TO.C,C7*%
X81098556Y-166293711D03*
X79198556Y-166293711D03*
%TD*%
D75*
%TO.C,U4*%
X129351000Y-133553200D03*
X129351000Y-134823200D03*
X129351000Y-136093200D03*
X129351000Y-137363200D03*
X129351000Y-138633200D03*
X129351000Y-139903200D03*
X129351000Y-141173200D03*
X129351000Y-142443200D03*
X134301000Y-142443200D03*
X134301000Y-141173200D03*
X134301000Y-139903200D03*
X134301000Y-138633200D03*
X134301000Y-137363200D03*
X134301000Y-136093200D03*
X134301000Y-134823200D03*
X134301000Y-133553200D03*
%TD*%
D70*
%TO.C,R2*%
X141046200Y-111914300D03*
X141046200Y-113739300D03*
%TD*%
D69*
%TO.C,R10*%
X81473000Y-163527500D03*
X79648000Y-163527500D03*
%TD*%
D72*
%TO.C,R6*%
X151765000Y-138322700D03*
X151765000Y-136497700D03*
%TD*%
D12*
%TO.C,C6*%
X95228244Y-176326800D03*
X95228244Y-178226800D03*
%TD*%
M02*
