%TF.GenerationSoftware,KiCad,Pcbnew,(6.0.5)*%
%TF.CreationDate,2022-06-30T10:33:31+03:00*%
%TF.ProjectId,VLC-both,564c432d-626f-4746-982e-6b696361645f,rev?*%
%TF.SameCoordinates,Original*%
%TF.FileFunction,Soldermask,Bot*%
%TF.FilePolarity,Negative*%
%FSLAX46Y46*%
G04 Gerber Fmt 4.6, Leading zero omitted, Abs format (unit mm)*
G04 Created by KiCad (PCBNEW (6.0.5)) date 2022-06-30 10:33:31*
%MOMM*%
%LPD*%
G01*
G04 APERTURE LIST*
%TA.AperFunction,Profile*%
%ADD10C,0.100000*%
%TD*%
%TA.AperFunction,Profile*%
%ADD11C,0.150000*%
%TD*%
%TA.AperFunction,Profile*%
%ADD12C,0.120000*%
%TD*%
%ADD13C,3.000000*%
%ADD14R,1.700000X1.700000*%
%ADD15O,1.700000X1.700000*%
%ADD16R,2.000000X3.000000*%
%ADD17O,2.000000X3.000000*%
%ADD18C,1.620000*%
%ADD19R,1.980000X3.960000*%
%ADD20O,1.980000X3.960000*%
%ADD21C,0.600000*%
G04 APERTURE END LIST*
D10*
X100521200Y-149547200D02*
X100521200Y-127000000D01*
X80923874Y-54801474D02*
G75*
G03*
X77923874Y-57801474I26J-3000026D01*
G01*
D11*
X74987317Y-100738067D02*
G75*
G03*
X70511792Y-96520004I-4225217J267D01*
G01*
X81077985Y-122705840D02*
X87495000Y-122515000D01*
X87495000Y-120015000D02*
X80923874Y-119801474D01*
X93495000Y-122515000D02*
X96045735Y-122781937D01*
D10*
X130923874Y-119801474D02*
G75*
G03*
X133923874Y-116801474I26J2999974D01*
G01*
X130923874Y-54801474D02*
X80923874Y-54801474D01*
X133923874Y-116801474D02*
X133923874Y-57801474D01*
D11*
X75125569Y-116622931D02*
G75*
G03*
X81077985Y-122705840I5993931J-88469D01*
G01*
D10*
X130923874Y-119801474D02*
X93495000Y-120015000D01*
D11*
X75125611Y-116622932D02*
X75184000Y-110732000D01*
D10*
X133923826Y-57801474D02*
G75*
G03*
X130923874Y-54801474I-2999926J74D01*
G01*
X77923926Y-116801474D02*
G75*
G03*
X80923874Y-119801474I2999974J-26D01*
G01*
D11*
X77684000Y-110732000D02*
X77923874Y-116801474D01*
D10*
X38521200Y-152547200D02*
X97521200Y-152547200D01*
X70511792Y-96520004D02*
X38516789Y-96551167D01*
X77684000Y-104732000D02*
X77923874Y-57801474D01*
X35521200Y-149547200D02*
G75*
G03*
X38521200Y-152547200I2999900J-100D01*
G01*
X97521200Y-152547200D02*
G75*
G03*
X100521200Y-149547200I0J3000000D01*
G01*
X35521200Y-149547200D02*
X35521200Y-99547200D01*
X38516789Y-96551170D02*
G75*
G03*
X35521200Y-99547200I11J-2995600D01*
G01*
D11*
X100521163Y-127000000D02*
G75*
G03*
X96045735Y-122781937I-4225463J0D01*
G01*
X74987257Y-100738067D02*
X75184000Y-104732000D01*
D12*
X75184000Y-104732000D02*
X77684000Y-104732000D01*
X75184000Y-110732000D02*
X77684000Y-110732000D01*
X87495000Y-120015000D02*
X87495000Y-122515000D01*
X93495000Y-120015000D02*
X93495000Y-122515000D01*
D13*
X97027556Y-149054811D03*
X39027556Y-149034811D03*
X39014400Y-100044811D03*
X81500000Y-58216794D03*
D14*
X93345000Y-117094000D03*
D15*
X95885000Y-117094000D03*
X98425000Y-117094000D03*
D14*
X109458994Y-117094000D03*
D15*
X106918994Y-117094000D03*
X104378994Y-117094000D03*
D16*
X95199194Y-72643994D03*
D17*
X100279194Y-72643994D03*
X107899194Y-72643994D03*
X110439194Y-72643994D03*
D18*
X66167000Y-130784600D03*
X61167000Y-133284600D03*
X66167000Y-135784600D03*
X38521000Y-134304400D03*
X41021000Y-139304400D03*
X43521000Y-134304400D03*
D14*
X81178400Y-74676000D03*
D15*
X81178400Y-77216000D03*
X81178400Y-79756000D03*
X81178400Y-82296000D03*
D19*
X99928594Y-62211594D03*
D20*
X94928594Y-62211594D03*
X89928594Y-62211594D03*
D13*
X130403600Y-58369200D03*
D14*
X115940594Y-117094000D03*
D15*
X118480594Y-117094000D03*
X121020594Y-117094000D03*
D21*
X75184000Y-107232000D03*
X75184000Y-106332000D03*
X75184000Y-109932000D03*
X77673200Y-107232000D03*
X77673200Y-109932000D03*
X75184000Y-109032000D03*
X77673200Y-109032000D03*
X77673200Y-106332000D03*
X77673200Y-108132000D03*
X77673200Y-105432000D03*
X75184000Y-108132000D03*
X75184000Y-105432000D03*
D14*
X44719200Y-129897900D03*
D15*
X44719200Y-127357900D03*
X44719200Y-124817900D03*
X44719200Y-122277900D03*
X44719200Y-119737900D03*
X44719200Y-117197900D03*
D21*
X90095000Y-122504200D03*
X92795000Y-120015000D03*
X91895000Y-120015000D03*
X92795000Y-122504200D03*
X89195000Y-120015000D03*
X88295000Y-122504200D03*
X88295000Y-120015000D03*
X90095000Y-120015000D03*
X89195000Y-122504200D03*
X90995000Y-120015000D03*
X91895000Y-122504200D03*
X90995000Y-122504200D03*
D14*
X99822000Y-83688000D03*
D15*
X99822000Y-86228000D03*
D13*
X130479800Y-116332000D03*
D14*
X56515000Y-100812600D03*
X81178400Y-101244400D03*
D15*
X81178400Y-98704400D03*
X81178400Y-96164400D03*
X81178400Y-93624400D03*
X81178400Y-91084400D03*
X81178400Y-88544400D03*
D13*
X81423874Y-116332000D03*
D14*
X92147556Y-147774811D03*
D15*
X92147556Y-150314811D03*
X89607556Y-147774811D03*
X89607556Y-150314811D03*
X87067556Y-147774811D03*
X87067556Y-150314811D03*
X84527556Y-147774811D03*
X84527556Y-150314811D03*
X81987556Y-147774811D03*
X81987556Y-150314811D03*
X79447556Y-147774811D03*
X79447556Y-150314811D03*
X76907556Y-147774811D03*
X76907556Y-150314811D03*
X74367556Y-147774811D03*
X74367556Y-150314811D03*
X71827556Y-147774811D03*
X71827556Y-150314811D03*
X69287556Y-147774811D03*
X69287556Y-150314811D03*
X66747556Y-147774811D03*
X66747556Y-150314811D03*
X64207556Y-147774811D03*
X64207556Y-150314811D03*
X61667556Y-147774811D03*
X61667556Y-150314811D03*
X59127556Y-147774811D03*
X59127556Y-150314811D03*
X56587556Y-147774811D03*
X56587556Y-150314811D03*
X54047556Y-147774811D03*
X54047556Y-150314811D03*
X51507556Y-147774811D03*
X51507556Y-150314811D03*
X48967556Y-147774811D03*
X48967556Y-150314811D03*
X46427556Y-147774811D03*
X46427556Y-150314811D03*
X43887556Y-147774811D03*
X43887556Y-150314811D03*
D14*
X129138994Y-63177754D03*
D15*
X131678994Y-63177754D03*
X129138994Y-65717754D03*
X131678994Y-65717754D03*
X129138994Y-68257754D03*
X131678994Y-68257754D03*
X129138994Y-70797754D03*
X131678994Y-70797754D03*
X129138994Y-73337754D03*
X131678994Y-73337754D03*
X129138994Y-75877754D03*
X131678994Y-75877754D03*
X129138994Y-78417754D03*
X131678994Y-78417754D03*
X129138994Y-80957754D03*
X131678994Y-80957754D03*
X129138994Y-83497754D03*
X131678994Y-83497754D03*
X129138994Y-86037754D03*
X131678994Y-86037754D03*
X129138994Y-88577754D03*
X131678994Y-88577754D03*
X129138994Y-91117754D03*
X131678994Y-91117754D03*
X129138994Y-93657754D03*
X131678994Y-93657754D03*
X129138994Y-96197754D03*
X131678994Y-96197754D03*
X129138994Y-98737754D03*
X131678994Y-98737754D03*
X129138994Y-101277754D03*
X131678994Y-101277754D03*
X129138994Y-103817754D03*
X131678994Y-103817754D03*
X129138994Y-106357754D03*
X131678994Y-106357754D03*
X129138994Y-108897754D03*
X131678994Y-108897754D03*
X129138994Y-111437754D03*
X131678994Y-111437754D03*
M02*
