%TF.GenerationSoftware,KiCad,Pcbnew,(6.0.5)*%
%TF.CreationDate,2022-06-24T13:45:12+03:00*%
%TF.ProjectId,VLC-both,564c432d-626f-4746-982e-6b696361645f,rev?*%
%TF.SameCoordinates,Original*%
%TF.FileFunction,Soldermask,Bot*%
%TF.FilePolarity,Negative*%
%FSLAX46Y46*%
G04 Gerber Fmt 4.6, Leading zero omitted, Abs format (unit mm)*
G04 Created by KiCad (PCBNEW (6.0.5)) date 2022-06-24 13:45:12*
%MOMM*%
%LPD*%
G01*
G04 APERTURE LIST*
%TA.AperFunction,Profile*%
%ADD10C,0.150000*%
%TD*%
%TA.AperFunction,Profile*%
%ADD11C,0.100000*%
%TD*%
%ADD12O,1.700000X1.700000*%
%ADD13C,3.000000*%
%ADD14R,1.700000X1.700000*%
%ADD15R,2.000000X3.000000*%
%ADD16O,2.000000X3.000000*%
%ADD17C,1.620000*%
%ADD18R,1.980000X3.960000*%
%ADD19O,1.980000X3.960000*%
G04 APERTURE END LIST*
D10*
X100521200Y-127000000D02*
G75*
G03*
X96045735Y-122781937I-4225465J0D01*
G01*
X80882375Y-122795908D02*
X87884000Y-122754874D01*
X87884000Y-119761000D02*
X80923874Y-119801474D01*
X77950937Y-111252000D02*
X77923874Y-116801474D01*
X74930001Y-116713000D02*
X74957063Y-111252000D01*
X74930001Y-116713000D02*
G75*
G03*
X80882375Y-122795908I5993899J-88500D01*
G01*
X74957063Y-111252000D02*
X77950937Y-111252000D01*
X93472000Y-122781937D02*
X96045735Y-122781937D01*
X93472000Y-122781937D02*
X93472000Y-119788063D01*
X87884000Y-122754874D02*
X87884000Y-119761000D01*
D11*
X77923874Y-99695000D02*
X77923874Y-57801474D01*
D10*
X74930000Y-99695000D02*
X77923874Y-99695000D01*
X74930000Y-96551167D02*
X74930000Y-99695000D01*
D11*
X100521200Y-149547200D02*
X100521200Y-127000000D01*
X80923874Y-54801474D02*
G75*
G03*
X77923874Y-57801474I26J-3000026D01*
G01*
X130923874Y-119801474D02*
G75*
G03*
X133923874Y-116801474I26J2999974D01*
G01*
X130923874Y-54801474D02*
X80923874Y-54801474D01*
X133923874Y-116801474D02*
X133923874Y-57801474D01*
X130923874Y-119801474D02*
X93472000Y-119788063D01*
X133923826Y-57801474D02*
G75*
G03*
X130923874Y-54801474I-2999926J74D01*
G01*
X77923926Y-116801474D02*
G75*
G03*
X80923874Y-119801474I2999974J-26D01*
G01*
X38521200Y-152547200D02*
X97521200Y-152547200D01*
X74930000Y-96551167D02*
X38516789Y-96551167D01*
X35521200Y-149547200D02*
G75*
G03*
X38521200Y-152547200I2999900J-100D01*
G01*
X97521200Y-152547200D02*
G75*
G03*
X100521200Y-149547200I0J3000000D01*
G01*
X35521200Y-149547200D02*
X35521200Y-99547200D01*
X38516789Y-96551168D02*
G75*
G03*
X35521200Y-99547200I9J-2995598D01*
G01*
D12*
X76454000Y-106172000D03*
D13*
X97027556Y-149054811D03*
X39027556Y-149034811D03*
X39014400Y-100044811D03*
X81500000Y-58216794D03*
D14*
X93345000Y-117094000D03*
D12*
X95885000Y-117094000D03*
X98425000Y-117094000D03*
D14*
X109458994Y-117094000D03*
D12*
X106918994Y-117094000D03*
X104378994Y-117094000D03*
D15*
X95199194Y-72643994D03*
D16*
X100279194Y-72643994D03*
X107899194Y-72643994D03*
X110439194Y-72643994D03*
D17*
X66167000Y-130784600D03*
X61167000Y-133284600D03*
X66167000Y-135784600D03*
X38521000Y-134304400D03*
X41021000Y-139304400D03*
X43521000Y-134304400D03*
D13*
X130302000Y-58293000D03*
D14*
X81178400Y-74676000D03*
D12*
X81178400Y-77216000D03*
X81178400Y-79756000D03*
X81178400Y-82296000D03*
D18*
X99928594Y-62211594D03*
D19*
X94928594Y-62211594D03*
X89928594Y-62211594D03*
D14*
X115940594Y-117094000D03*
D12*
X118480594Y-117094000D03*
X121020594Y-117094000D03*
D13*
X130429000Y-116300000D03*
X81500000Y-116300000D03*
D14*
X44719200Y-129897900D03*
D12*
X44719200Y-127357900D03*
X44719200Y-124817900D03*
X44719200Y-122277900D03*
X44719200Y-119737900D03*
X44719200Y-117197900D03*
D14*
X99822000Y-83688000D03*
D12*
X99822000Y-86228000D03*
D14*
X81178400Y-101244400D03*
D12*
X81178400Y-98704400D03*
X81178400Y-96164400D03*
X81178400Y-93624400D03*
X81178400Y-91084400D03*
X81178400Y-88544400D03*
D14*
X92147556Y-147774811D03*
D12*
X92147556Y-150314811D03*
X89607556Y-147774811D03*
X89607556Y-150314811D03*
X87067556Y-147774811D03*
X87067556Y-150314811D03*
X84527556Y-147774811D03*
X84527556Y-150314811D03*
X81987556Y-147774811D03*
X81987556Y-150314811D03*
X79447556Y-147774811D03*
X79447556Y-150314811D03*
X76907556Y-147774811D03*
X76907556Y-150314811D03*
X74367556Y-147774811D03*
X74367556Y-150314811D03*
X71827556Y-147774811D03*
X71827556Y-150314811D03*
X69287556Y-147774811D03*
X69287556Y-150314811D03*
X66747556Y-147774811D03*
X66747556Y-150314811D03*
X64207556Y-147774811D03*
X64207556Y-150314811D03*
X61667556Y-147774811D03*
X61667556Y-150314811D03*
X59127556Y-147774811D03*
X59127556Y-150314811D03*
X56587556Y-147774811D03*
X56587556Y-150314811D03*
X54047556Y-147774811D03*
X54047556Y-150314811D03*
X51507556Y-147774811D03*
X51507556Y-150314811D03*
X48967556Y-147774811D03*
X48967556Y-150314811D03*
X46427556Y-147774811D03*
X46427556Y-150314811D03*
X43887556Y-147774811D03*
X43887556Y-150314811D03*
D14*
X129138994Y-63177754D03*
D12*
X131678994Y-63177754D03*
X129138994Y-65717754D03*
X131678994Y-65717754D03*
X129138994Y-68257754D03*
X131678994Y-68257754D03*
X129138994Y-70797754D03*
X131678994Y-70797754D03*
X129138994Y-73337754D03*
X131678994Y-73337754D03*
X129138994Y-75877754D03*
X131678994Y-75877754D03*
X129138994Y-78417754D03*
X131678994Y-78417754D03*
X129138994Y-80957754D03*
X131678994Y-80957754D03*
X129138994Y-83497754D03*
X131678994Y-83497754D03*
X129138994Y-86037754D03*
X131678994Y-86037754D03*
X129138994Y-88577754D03*
X131678994Y-88577754D03*
X129138994Y-91117754D03*
X131678994Y-91117754D03*
X129138994Y-93657754D03*
X131678994Y-93657754D03*
X129138994Y-96197754D03*
X131678994Y-96197754D03*
X129138994Y-98737754D03*
X131678994Y-98737754D03*
X129138994Y-101277754D03*
X131678994Y-101277754D03*
X129138994Y-103817754D03*
X131678994Y-103817754D03*
X129138994Y-106357754D03*
X131678994Y-106357754D03*
X129138994Y-108897754D03*
X131678994Y-108897754D03*
X129138994Y-111437754D03*
X131678994Y-111437754D03*
M02*
