M48
; DRILL file {KiCad (6.0.5)} date Thu Jun 30 10:33:45 2022
; FORMAT={-:-/ absolute / metric / decimal}
; #@! TF.CreationDate,2022-06-30T10:33:45+03:00
; #@! TF.GenerationSoftware,Kicad,Pcbnew,(6.0.5)
; #@! TF.FileFunction,NonPlated,1,2,NPTH
FMAT,2
METRIC
; #@! TA.AperFunction,NonPlated,NPTH,ComponentDrill
T1C0.600
; #@! TA.AperFunction,NonPlated,NPTH,ComponentDrill
T2C2.750
%
G90
G05
T1
X75.184Y-105.432
X75.184Y-106.332
X75.184Y-107.232
X75.184Y-108.132
X75.184Y-109.032
X75.184Y-109.932
X77.673Y-105.432
X77.673Y-106.332
X77.673Y-107.232
X77.673Y-108.132
X77.673Y-109.032
X77.673Y-109.932
X88.295Y-120.015
X88.295Y-122.504
X89.195Y-120.015
X89.195Y-122.504
X90.095Y-120.015
X90.095Y-122.504
X90.995Y-120.015
X90.995Y-122.504
X91.895Y-120.015
X91.895Y-122.504
X92.795Y-120.015
X92.795Y-122.504
T2
X39.014Y-100.045
X39.028Y-149.035
X81.424Y-116.332
X81.5Y-58.217
X97.028Y-149.055
X130.404Y-58.369
X130.48Y-116.332
T0
M30
