%TF.GenerationSoftware,KiCad,Pcbnew,(6.0.4)*%
%TF.CreationDate,2022-06-24T17:53:15+03:00*%
%TF.ProjectId,VLC-both,564c432d-626f-4746-982e-6b696361645f,rev?*%
%TF.SameCoordinates,Original*%
%TF.FileFunction,Soldermask,Top*%
%TF.FilePolarity,Negative*%
%FSLAX46Y46*%
G04 Gerber Fmt 4.6, Leading zero omitted, Abs format (unit mm)*
G04 Created by KiCad (PCBNEW (6.0.4)) date 2022-06-24 17:53:15*
%MOMM*%
%LPD*%
G01*
G04 APERTURE LIST*
G04 Aperture macros list*
%AMRoundRect*
0 Rectangle with rounded corners*
0 $1 Rounding radius*
0 $2 $3 $4 $5 $6 $7 $8 $9 X,Y pos of 4 corners*
0 Add a 4 corners polygon primitive as box body*
4,1,4,$2,$3,$4,$5,$6,$7,$8,$9,$2,$3,0*
0 Add four circle primitives for the rounded corners*
1,1,$1+$1,$2,$3*
1,1,$1+$1,$4,$5*
1,1,$1+$1,$6,$7*
1,1,$1+$1,$8,$9*
0 Add four rect primitives between the rounded corners*
20,1,$1+$1,$2,$3,$4,$5,0*
20,1,$1+$1,$4,$5,$6,$7,0*
20,1,$1+$1,$6,$7,$8,$9,0*
20,1,$1+$1,$8,$9,$2,$3,0*%
G04 Aperture macros list end*
%TA.AperFunction,Profile*%
%ADD10C,0.100000*%
%TD*%
%TA.AperFunction,Profile*%
%ADD11C,0.150000*%
%TD*%
%ADD12C,3.000000*%
%ADD13R,1.700000X1.700000*%
%ADD14R,1.000000X0.700000*%
%ADD15R,0.700000X1.000000*%
%ADD16RoundRect,0.250000X-0.450000X0.262500X-0.450000X-0.262500X0.450000X-0.262500X0.450000X0.262500X0*%
%ADD17RoundRect,0.250000X-0.262500X-0.450000X0.262500X-0.450000X0.262500X0.450000X-0.262500X0.450000X0*%
%ADD18O,1.700000X1.700000*%
%ADD19RoundRect,0.250000X0.262500X0.450000X-0.262500X0.450000X-0.262500X-0.450000X0.262500X-0.450000X0*%
%ADD20RoundRect,0.250000X-0.475000X0.250000X-0.475000X-0.250000X0.475000X-0.250000X0.475000X0.250000X0*%
%ADD21RoundRect,0.250000X0.450000X-0.262500X0.450000X0.262500X-0.450000X0.262500X-0.450000X-0.262500X0*%
%ADD22R,2.000000X3.000000*%
%ADD23O,2.000000X3.000000*%
%ADD24C,1.620000*%
%ADD25RoundRect,0.150000X0.150000X-0.587500X0.150000X0.587500X-0.150000X0.587500X-0.150000X-0.587500X0*%
%ADD26RoundRect,0.250000X0.475000X-0.250000X0.475000X0.250000X-0.475000X0.250000X-0.475000X-0.250000X0*%
%ADD27RoundRect,0.250000X0.550000X-1.500000X0.550000X1.500000X-0.550000X1.500000X-0.550000X-1.500000X0*%
%ADD28RoundRect,0.250000X0.250000X0.475000X-0.250000X0.475000X-0.250000X-0.475000X0.250000X-0.475000X0*%
%ADD29RoundRect,0.150000X-0.825000X-0.150000X0.825000X-0.150000X0.825000X0.150000X-0.825000X0.150000X0*%
%ADD30R,1.980000X3.960000*%
%ADD31O,1.980000X3.960000*%
%ADD32C,1.000000*%
%ADD33RoundRect,0.150000X0.587500X0.150000X-0.587500X0.150000X-0.587500X-0.150000X0.587500X-0.150000X0*%
%ADD34R,0.400000X0.800000*%
%ADD35RoundRect,0.150000X-0.587500X-0.150000X0.587500X-0.150000X0.587500X0.150000X-0.587500X0.150000X0*%
%ADD36RoundRect,0.250000X-0.250000X-0.475000X0.250000X-0.475000X0.250000X0.475000X-0.250000X0.475000X0*%
%ADD37RoundRect,0.150000X-0.150000X0.825000X-0.150000X-0.825000X0.150000X-0.825000X0.150000X0.825000X0*%
%ADD38R,0.800000X0.400000*%
%ADD39R,0.800000X0.300000*%
G04 APERTURE END LIST*
D10*
X100521200Y-149547200D02*
X100521200Y-127000000D01*
X80923874Y-54801474D02*
G75*
G03*
X77923874Y-57801474I26J-3000026D01*
G01*
D11*
X80882375Y-122795908D02*
X87884000Y-122754874D01*
X87884000Y-119761000D02*
X80923874Y-119801474D01*
X74930000Y-99695000D02*
X77923874Y-99695000D01*
X87884000Y-122754874D02*
X87884000Y-119761000D01*
X93472000Y-122781937D02*
X96045735Y-122781937D01*
D10*
X130923874Y-119801474D02*
G75*
G03*
X133923874Y-116801474I26J2999974D01*
G01*
X130923874Y-54801474D02*
X80923874Y-54801474D01*
X133923874Y-116801474D02*
X133923874Y-57801474D01*
D11*
X74930001Y-116713000D02*
G75*
G03*
X80882375Y-122795908I5993899J-88500D01*
G01*
D10*
X130923874Y-119801474D02*
X93472000Y-119788063D01*
D11*
X74930001Y-116713000D02*
X74957063Y-111252000D01*
D10*
X133923826Y-57801474D02*
G75*
G03*
X130923874Y-54801474I-2999926J74D01*
G01*
X77923926Y-116801474D02*
G75*
G03*
X80923874Y-119801474I2999974J-26D01*
G01*
D11*
X77950937Y-111252000D02*
X77923874Y-116801474D01*
D10*
X38521200Y-152547200D02*
X97521200Y-152547200D01*
X74930000Y-96551167D02*
X38516789Y-96551167D01*
D11*
X74930000Y-96551167D02*
X74930000Y-99695000D01*
X93472000Y-122781937D02*
X93472000Y-119788063D01*
D10*
X77923874Y-99695000D02*
X77923874Y-57801474D01*
X35521200Y-149547200D02*
G75*
G03*
X38521200Y-152547200I2999900J-100D01*
G01*
X97521200Y-152547200D02*
G75*
G03*
X100521200Y-149547200I0J3000000D01*
G01*
D11*
X74957063Y-111252000D02*
X77950937Y-111252000D01*
D10*
X35521200Y-149547200D02*
X35521200Y-99547200D01*
X38516789Y-96551170D02*
G75*
G03*
X35521200Y-99547200I11J-2995600D01*
G01*
D11*
X100521163Y-127000000D02*
G75*
G03*
X96045735Y-122781937I-4225463J0D01*
G01*
D12*
X81500000Y-116382800D03*
X130429000Y-116382800D03*
X130429000Y-58318400D03*
D13*
X76403200Y-106451400D03*
D14*
X73454000Y-139805800D03*
X79454000Y-139805800D03*
X73454000Y-143505800D03*
X79454000Y-143505800D03*
D15*
X121431600Y-75333600D03*
X121431600Y-81333600D03*
X117731600Y-75333600D03*
X117731600Y-81333600D03*
D16*
X82321400Y-142597500D03*
X82321400Y-144422500D03*
D17*
X121744100Y-72567800D03*
X123569100Y-72567800D03*
D12*
X97027556Y-149054811D03*
X39027556Y-149034811D03*
X39014400Y-100044811D03*
X81500000Y-58216794D03*
D13*
X93345000Y-117094000D03*
D18*
X95885000Y-117094000D03*
X98425000Y-117094000D03*
D19*
X55488800Y-118010700D03*
X53663800Y-118010700D03*
D20*
X69244044Y-130810000D03*
X69244044Y-132710000D03*
D13*
X109458994Y-117094000D03*
D18*
X106918994Y-117094000D03*
X104378994Y-117094000D03*
D21*
X125780800Y-92805900D03*
X125780800Y-90980900D03*
D22*
X95199194Y-72643994D03*
D23*
X100279194Y-72643994D03*
X107899194Y-72643994D03*
X110439194Y-72643994D03*
D24*
X66167000Y-130784600D03*
X61167000Y-133284600D03*
X66167000Y-135784600D03*
D19*
X97409000Y-102539800D03*
X95584000Y-102539800D03*
D20*
X54269600Y-112006100D03*
X54269600Y-113906100D03*
D16*
X125780800Y-84126700D03*
X125780800Y-85951700D03*
D25*
X51033600Y-105638600D03*
X52933600Y-105638600D03*
X51983600Y-103763600D03*
D26*
X71501000Y-125562400D03*
X71501000Y-123662400D03*
D24*
X38521000Y-134304400D03*
X41021000Y-139304400D03*
X43521000Y-134304400D03*
D19*
X68525556Y-141653411D03*
X66700556Y-141653411D03*
X49860200Y-143814800D03*
X48035200Y-143814800D03*
D27*
X90551000Y-102039400D03*
X90551000Y-96639400D03*
D21*
X123698000Y-91741000D03*
X123698000Y-89916000D03*
D17*
X60653456Y-143736211D03*
X62478456Y-143736211D03*
D28*
X55114356Y-120776911D03*
X53214356Y-120776911D03*
D17*
X47974200Y-125325900D03*
X49799200Y-125325900D03*
D21*
X71501000Y-129133600D03*
X71501000Y-127308600D03*
D17*
X51563900Y-143814800D03*
X53388900Y-143814800D03*
D16*
X115062000Y-66397500D03*
X115062000Y-68222500D03*
D26*
X46700400Y-109450900D03*
X46700400Y-107550900D03*
D29*
X103366800Y-88036400D03*
X103366800Y-89306400D03*
X103366800Y-90576400D03*
X103366800Y-91846400D03*
X103366800Y-93116400D03*
X103366800Y-94386400D03*
X103366800Y-95656400D03*
X103366800Y-96926400D03*
X108316800Y-96926400D03*
X108316800Y-95656400D03*
X108316800Y-94386400D03*
X108316800Y-93116400D03*
X108316800Y-91846400D03*
X108316800Y-90576400D03*
X108316800Y-89306400D03*
X108316800Y-88036400D03*
D13*
X81178400Y-74676000D03*
D18*
X81178400Y-77216000D03*
X81178400Y-79756000D03*
X81178400Y-82296000D03*
D30*
X99928594Y-62211594D03*
D31*
X94928594Y-62211594D03*
X89928594Y-62211594D03*
D16*
X46700400Y-111193300D03*
X46700400Y-113018300D03*
D13*
X115940594Y-117094000D03*
D18*
X118480594Y-117094000D03*
X121020594Y-117094000D03*
D28*
X105892600Y-84607400D03*
X103992600Y-84607400D03*
D21*
X117475000Y-68246000D03*
X117475000Y-66421000D03*
D17*
X50057000Y-115775500D03*
X51882000Y-115775500D03*
D19*
X50874300Y-141655800D03*
X49049300Y-141655800D03*
D17*
X51782300Y-125376700D03*
X53607300Y-125376700D03*
X113438300Y-87045800D03*
X115263300Y-87045800D03*
D13*
X44719200Y-129897900D03*
D18*
X44719200Y-127357900D03*
X44719200Y-124817900D03*
X44719200Y-122277900D03*
X44719200Y-119737900D03*
X44719200Y-117197900D03*
D32*
X98120200Y-143941800D03*
D19*
X51930900Y-117959900D03*
X50105900Y-117959900D03*
D16*
X123698000Y-93552000D03*
X123698000Y-95377000D03*
D21*
X110871000Y-85875500D03*
X110871000Y-84050500D03*
D17*
X54728700Y-103786700D03*
X56553700Y-103786700D03*
D33*
X112522000Y-68199000D03*
X112522000Y-66299000D03*
X110647000Y-67249000D03*
D34*
X43550600Y-142102800D03*
X42900600Y-142102800D03*
X42250600Y-142102800D03*
X42250600Y-144002800D03*
X43550600Y-144002800D03*
D32*
X84099400Y-65887600D03*
D13*
X99822000Y-83688000D03*
D18*
X99822000Y-86228000D03*
D26*
X110998000Y-89977000D03*
X110998000Y-88077000D03*
D17*
X61769156Y-141602611D03*
X63594156Y-141602611D03*
D19*
X69588556Y-143837811D03*
X67763556Y-143837811D03*
D35*
X113540300Y-89143800D03*
X113540300Y-91043800D03*
X115415300Y-90093800D03*
D17*
X53661900Y-115775500D03*
X55486900Y-115775500D03*
D20*
X46075600Y-142153600D03*
X46075600Y-144053600D03*
D19*
X51880100Y-113641900D03*
X50055100Y-113641900D03*
D36*
X48976200Y-107698300D03*
X50876200Y-107698300D03*
D37*
X69240400Y-122493000D03*
X67970400Y-122493000D03*
X66700400Y-122493000D03*
X65430400Y-122493000D03*
X64160400Y-122493000D03*
X62890400Y-122493000D03*
X61620400Y-122493000D03*
X60350400Y-122493000D03*
X60350400Y-127443000D03*
X61620400Y-127443000D03*
X62890400Y-127443000D03*
X64160400Y-127443000D03*
X65430400Y-127443000D03*
X66700400Y-127443000D03*
X67970400Y-127443000D03*
X69240400Y-127443000D03*
D13*
X81178400Y-101244400D03*
D18*
X81178400Y-98704400D03*
X81178400Y-96164400D03*
X81178400Y-93624400D03*
X81178400Y-91084400D03*
X81178400Y-88544400D03*
D38*
X48894456Y-121092111D03*
X48894456Y-121742111D03*
X48894456Y-122392111D03*
X50794456Y-122392111D03*
X50794456Y-121092111D03*
D39*
X52390600Y-110861300D03*
X52390600Y-110361300D03*
X52390600Y-109861300D03*
X52390600Y-109361300D03*
X49290600Y-109361300D03*
X49290600Y-109861300D03*
X49290600Y-110361300D03*
X49290600Y-110861300D03*
D26*
X120523000Y-114056200D03*
X120523000Y-112156200D03*
X108661200Y-85897800D03*
X108661200Y-83997800D03*
D35*
X71477900Y-130810000D03*
X71477900Y-132710000D03*
X73352900Y-131760000D03*
D13*
X92147556Y-147774811D03*
D18*
X92147556Y-150314811D03*
X89607556Y-147774811D03*
X89607556Y-150314811D03*
X87067556Y-147774811D03*
X87067556Y-150314811D03*
X84527556Y-147774811D03*
X84527556Y-150314811D03*
X81987556Y-147774811D03*
X81987556Y-150314811D03*
X79447556Y-147774811D03*
X79447556Y-150314811D03*
X76907556Y-147774811D03*
X76907556Y-150314811D03*
X74367556Y-147774811D03*
X74367556Y-150314811D03*
X71827556Y-147774811D03*
X71827556Y-150314811D03*
X69287556Y-147774811D03*
X69287556Y-150314811D03*
X66747556Y-147774811D03*
X66747556Y-150314811D03*
X64207556Y-147774811D03*
X64207556Y-150314811D03*
X61667556Y-147774811D03*
X61667556Y-150314811D03*
X59127556Y-147774811D03*
X59127556Y-150314811D03*
X56587556Y-147774811D03*
X56587556Y-150314811D03*
X54047556Y-147774811D03*
X54047556Y-150314811D03*
X51507556Y-147774811D03*
X51507556Y-150314811D03*
X48967556Y-147774811D03*
X48967556Y-150314811D03*
X46427556Y-147774811D03*
X46427556Y-150314811D03*
X43887556Y-147774811D03*
X43887556Y-150314811D03*
D13*
X129138994Y-63177754D03*
D18*
X131678994Y-63177754D03*
X129138994Y-65717754D03*
X131678994Y-65717754D03*
X129138994Y-68257754D03*
X131678994Y-68257754D03*
X129138994Y-70797754D03*
X131678994Y-70797754D03*
X129138994Y-73337754D03*
X131678994Y-73337754D03*
X129138994Y-75877754D03*
X131678994Y-75877754D03*
X129138994Y-78417754D03*
X131678994Y-78417754D03*
X129138994Y-80957754D03*
X131678994Y-80957754D03*
X129138994Y-83497754D03*
X131678994Y-83497754D03*
X129138994Y-86037754D03*
X131678994Y-86037754D03*
X129138994Y-88577754D03*
X131678994Y-88577754D03*
X129138994Y-91117754D03*
X131678994Y-91117754D03*
X129138994Y-93657754D03*
X131678994Y-93657754D03*
X129138994Y-96197754D03*
X131678994Y-96197754D03*
X129138994Y-98737754D03*
X131678994Y-98737754D03*
X129138994Y-101277754D03*
X131678994Y-101277754D03*
X129138994Y-103817754D03*
X131678994Y-103817754D03*
X129138994Y-106357754D03*
X131678994Y-106357754D03*
X129138994Y-108897754D03*
X131678994Y-108897754D03*
X129138994Y-111437754D03*
X131678994Y-111437754D03*
M02*
