M48
; DRILL file {KiCad (6.0.4)} date Fri Jun 24 17:53:27 2022
; FORMAT={-:-/ absolute / metric / decimal}
; #@! TF.CreationDate,2022-06-24T17:53:27+03:00
; #@! TF.GenerationSoftware,Kicad,Pcbnew,(6.0.4)
; #@! TF.FileFunction,Plated,1,2,PTH
FMAT,2
METRIC
; #@! TA.AperFunction,Plated,PTH,ViaDrill
T1C0.200
; #@! TA.AperFunction,Plated,PTH,ComponentDrill
T2C0.900
; #@! TA.AperFunction,Plated,PTH,ComponentDrill
T3C1.000
; #@! TA.AperFunction,Plated,PTH,ComponentDrill
T4C1.200
; #@! TA.AperFunction,Plated,PTH,ComponentDrill
T5C1.320
%
G90
G05
T1
X42.901Y-141.097
X45.034Y-145.771
X46.05Y-140.97
X46.711Y-106.553
X47.447Y-142.596
X47.523Y-121.768
X48.285Y-109.372
X48.997Y-106.375
X49.784Y-135.509
X49.784Y-137.033
X50.241Y-110.871
X51.74Y-135.484
X51.74Y-136.931
X51.892Y-112.37
X52.121Y-142.545
X52.349Y-135.458
X52.375Y-136.957
X52.972Y-113.906
X53.594Y-135.382
X53.594Y-136.982
X54.077Y-105.639
X54.27Y-108.862
X54.27Y-110.957
X54.356Y-126.746
X55.626Y-126.746
X56.236Y-120.752
X57.14Y-117.983
X57.14Y-126.746
X58.938Y-117.983
X58.938Y-126.746
X60.173Y-142.443
X60.401Y-125.959
X61.951Y-139.979
X63.282Y-138.976
X64.135Y-129.235
X64.999Y-139.014
X65.507Y-132.588
X65.659Y-140.03
X66.142Y-144.755
X66.7Y-126.009
X67.183Y-140.056
X67.764Y-145.335
X68.529Y-140.056
X69.291Y-133.68
X71.501Y-122.377
X71.526Y-133.782
X71.806Y-139.776
X72.796Y-126.949
X73.931Y-126.949
X78.791Y-146.025
X79.426Y-144.918
X80.01Y-146.05
X86.868Y-79.756
X87.884Y-80.899
X88.011Y-78.74
X88.773Y-80.01
X89.027Y-94.132
X89.027Y-94.767
X89.027Y-95.402
X89.535Y-94.132
X91.44Y-94.132
X91.948Y-94.132
X91.948Y-94.767
X91.948Y-95.402
X94.488Y-90.551
X94.615Y-86.614
X96.139Y-86.614
X96.52Y-90.551
X96.647Y-98.425
X98.171Y-98.425
X99.695Y-98.425
X100.584Y-88.773
X100.584Y-91.059
X101.092Y-98.806
X104.013Y-85.725
X106.299Y-79.248
X106.68Y-96.901
X106.807Y-78.232
X106.807Y-90.678
X108.712Y-82.804
X109.093Y-78.232
X109.601Y-79.248
X109.728Y-90.932
X109.982Y-96.901
X110.998Y-87.122
X112.141Y-91.313
X112.522Y-65.151
X115.062Y-65.151
X117.094Y-91.059
X117.094Y-93.616
X117.704Y-82.88
X120.523Y-111.176
X121.666Y-91.821
X121.92Y-89.916
X122.174Y-88.011
X122.174Y-93.599
X122.174Y-96.647
X122.174Y-106.807
X122.174Y-109.347
X122.936Y-84.201
X123.698Y-88.011
X124.587Y-80.264
X124.663Y-75.819
X126.213Y-75.844
T2
X38.521Y-134.304
X41.021Y-139.304
X43.521Y-134.304
X61.167Y-133.285
X66.167Y-130.785
X66.167Y-135.785
T3
X43.888Y-147.775
X43.888Y-150.315
X44.719Y-117.198
X44.719Y-119.738
X44.719Y-122.278
X44.719Y-124.818
X44.719Y-127.358
X44.719Y-129.898
X46.428Y-147.775
X46.428Y-150.315
X48.968Y-147.775
X48.968Y-150.315
X51.508Y-147.775
X51.508Y-150.315
X54.048Y-147.775
X54.048Y-150.315
X56.588Y-147.775
X56.588Y-150.315
X59.128Y-147.775
X59.128Y-150.315
X61.668Y-147.775
X61.668Y-150.315
X64.208Y-147.775
X64.208Y-150.315
X66.748Y-147.775
X66.748Y-150.315
X69.288Y-147.775
X69.288Y-150.315
X71.828Y-147.775
X71.828Y-150.315
X74.368Y-147.775
X74.368Y-150.315
X76.403Y-106.451
X76.908Y-147.775
X76.908Y-150.315
X79.448Y-147.775
X79.448Y-150.315
X81.178Y-74.676
X81.178Y-77.216
X81.178Y-79.756
X81.178Y-82.296
X81.178Y-88.544
X81.178Y-91.084
X81.178Y-93.624
X81.178Y-96.164
X81.178Y-98.704
X81.178Y-101.244
X81.988Y-147.775
X81.988Y-150.315
X84.528Y-147.775
X84.528Y-150.315
X87.068Y-147.775
X87.068Y-150.315
X89.608Y-147.775
X89.608Y-150.315
X92.148Y-147.775
X92.148Y-150.315
X93.345Y-117.094
X95.885Y-117.094
X98.425Y-117.094
X99.822Y-83.688
X99.822Y-86.228
X104.379Y-117.094
X106.919Y-117.094
X109.459Y-117.094
X115.941Y-117.094
X118.481Y-117.094
X121.021Y-117.094
X129.139Y-63.178
X129.139Y-65.718
X129.139Y-68.258
X129.139Y-70.798
X129.139Y-73.338
X129.139Y-75.878
X129.139Y-78.418
X129.139Y-80.958
X129.139Y-83.498
X129.139Y-86.038
X129.139Y-88.578
X129.139Y-91.118
X129.139Y-93.658
X129.139Y-96.198
X129.139Y-98.738
X129.139Y-101.278
X129.139Y-103.818
X129.139Y-106.358
X129.139Y-108.898
X129.139Y-111.438
X131.679Y-63.178
X131.679Y-65.718
X131.679Y-68.258
X131.679Y-70.798
X131.679Y-73.338
X131.679Y-75.878
X131.679Y-78.418
X131.679Y-80.958
X131.679Y-83.498
X131.679Y-86.038
X131.679Y-88.578
X131.679Y-91.118
X131.679Y-93.658
X131.679Y-96.198
X131.679Y-98.738
X131.679Y-101.278
X131.679Y-103.818
X131.679Y-106.358
X131.679Y-108.898
X131.679Y-111.438
T4
X95.199Y-72.644
X100.279Y-72.644
X107.899Y-72.644
X110.439Y-72.644
T5
X89.929Y-62.212
X94.929Y-62.212
X99.929Y-62.212
T0
M30
