%TF.GenerationSoftware,KiCad,Pcbnew,(6.0.4)*%
%TF.CreationDate,2022-06-24T17:53:15+03:00*%
%TF.ProjectId,VLC-both,564c432d-626f-4746-982e-6b696361645f,rev?*%
%TF.SameCoordinates,Original*%
%TF.FileFunction,Other,User*%
%FSLAX46Y46*%
G04 Gerber Fmt 4.6, Leading zero omitted, Abs format (unit mm)*
G04 Created by KiCad (PCBNEW (6.0.4)) date 2022-06-24 17:53:15*
%MOMM*%
%LPD*%
G01*
G04 APERTURE LIST*
%ADD10C,0.100000*%
%ADD11C,0.150000*%
%TA.AperFunction,Profile*%
%ADD12C,0.100000*%
%TD*%
%TA.AperFunction,Profile*%
%ADD13C,0.150000*%
%TD*%
G04 APERTURE END LIST*
D10*
X38531800Y-152552400D02*
X97531800Y-152552400D01*
X77934474Y-116806674D02*
G75*
G03*
X80934474Y-119806674I3000000J0D01*
G01*
D11*
X74940601Y-116718200D02*
G75*
G03*
X80892975Y-122801108I5996481J-85973D01*
G01*
D10*
X133934474Y-116806674D02*
X133934474Y-57806674D01*
D11*
X80892975Y-122801108D02*
X87894600Y-122760074D01*
D10*
X100531800Y-149552400D02*
X100531800Y-127005200D01*
D11*
X87894600Y-122760074D02*
X87894600Y-119766200D01*
D10*
X77934474Y-99700200D02*
X77934474Y-57806674D01*
X74940600Y-96556367D02*
X38527389Y-96556367D01*
X133934474Y-57806674D02*
G75*
G03*
X130934474Y-54806674I-3000000J0D01*
G01*
D11*
X74940600Y-99700200D02*
X77934474Y-99700200D01*
X74967663Y-111257200D02*
X77961537Y-111257200D01*
D10*
X130934474Y-119806674D02*
X93482600Y-119793263D01*
D11*
X100531800Y-127005200D02*
G75*
G03*
X96056335Y-122787137I-4225183J299D01*
G01*
D10*
X35531800Y-149552400D02*
G75*
G03*
X38531800Y-152552400I3000000J0D01*
G01*
D11*
X93482600Y-122787137D02*
X96056335Y-122787137D01*
D10*
X130934474Y-119806674D02*
G75*
G03*
X133934474Y-116806674I0J3000000D01*
G01*
X97531800Y-152552400D02*
G75*
G03*
X100531800Y-149552400I0J3000000D01*
G01*
X35531800Y-149552400D02*
X35531800Y-99552400D01*
X80934474Y-54806674D02*
G75*
G03*
X77934474Y-57806674I0J-3000000D01*
G01*
D11*
X74940601Y-116718200D02*
X74967663Y-111257200D01*
X93482600Y-122787137D02*
X93482600Y-119793263D01*
X77961537Y-111257200D02*
X77934474Y-116806674D01*
D10*
X130934474Y-54806674D02*
X80934474Y-54806674D01*
D11*
X87894600Y-119766200D02*
X80934474Y-119806674D01*
D10*
X38527389Y-96556367D02*
G75*
G03*
X35531800Y-99552400I222J-2995811D01*
G01*
D11*
X74940600Y-96556367D02*
X74940600Y-99700200D01*
D12*
X100521200Y-149547200D02*
X100521200Y-127000000D01*
X80923874Y-54801474D02*
G75*
G03*
X77923874Y-57801474I26J-3000026D01*
G01*
D13*
X80882375Y-122795908D02*
X87884000Y-122754874D01*
X87884000Y-119761000D02*
X80923874Y-119801474D01*
X74930000Y-99695000D02*
X77923874Y-99695000D01*
X87884000Y-122754874D02*
X87884000Y-119761000D01*
X93472000Y-122781937D02*
X96045735Y-122781937D01*
D12*
X130923874Y-119801474D02*
G75*
G03*
X133923874Y-116801474I26J2999974D01*
G01*
X130923874Y-54801474D02*
X80923874Y-54801474D01*
X133923874Y-116801474D02*
X133923874Y-57801474D01*
D13*
X74930001Y-116713000D02*
G75*
G03*
X80882375Y-122795908I5993899J-88500D01*
G01*
D12*
X130923874Y-119801474D02*
X93472000Y-119788063D01*
D13*
X74930001Y-116713000D02*
X74957063Y-111252000D01*
D12*
X133923826Y-57801474D02*
G75*
G03*
X130923874Y-54801474I-2999926J74D01*
G01*
X77923926Y-116801474D02*
G75*
G03*
X80923874Y-119801474I2999974J-26D01*
G01*
D13*
X77950937Y-111252000D02*
X77923874Y-116801474D01*
D12*
X38521200Y-152547200D02*
X97521200Y-152547200D01*
X74930000Y-96551167D02*
X38516789Y-96551167D01*
D13*
X74930000Y-96551167D02*
X74930000Y-99695000D01*
X93472000Y-122781937D02*
X93472000Y-119788063D01*
D12*
X77923874Y-99695000D02*
X77923874Y-57801474D01*
X35521200Y-149547200D02*
G75*
G03*
X38521200Y-152547200I2999900J-100D01*
G01*
X97521200Y-152547200D02*
G75*
G03*
X100521200Y-149547200I0J3000000D01*
G01*
D13*
X74957063Y-111252000D02*
X77950937Y-111252000D01*
D12*
X35521200Y-149547200D02*
X35521200Y-99547200D01*
X38516789Y-96551170D02*
G75*
G03*
X35521200Y-99547200I11J-2995600D01*
G01*
D13*
X100521163Y-127000000D02*
G75*
G03*
X96045735Y-122781937I-4225463J0D01*
G01*
M02*
